<?xml version="1.0" encoding="UTF-8" standalone="no"?>
<svg id="svg2" xmlns="http://www.w3.org/2000/svg" width="500" height="300" version="1.0">       
    <defs>
    <marker id="arrow" markerWidth="10" markerHeight="10" refX="8" refY="3" orient="auto" markerUnits="strokeWidth">
        <path d="M0,0 L0,6 L9,3 z" fill="#000" />
    </marker>
    </defs>
    <svg x="0">
    
            <svg x="50" y="50" width="100" height="70">
              <rect x="0" y="0" width="100" height="70" stroke="red" stroke-width="3px" fill="white"/>
              <text x="50%" y="50%" alignment-baseline="middle" text-anchor="middle" font-family="Verdana">Prvi box</text>    
            </svg>
        
            <svg x="150" y="150" width="100" height="70">
              <rect x="0" y="0" width="100" height="70" stroke="red" stroke-width="3px" fill="white"/>
              <text x="50%" y="50%" alignment-baseline="middle" text-anchor="middle" font-family="Verdana">Drugi box</text>    
            </svg>
        
            <svg x="300" y="150" width="100" height="70">
              <rect x="0" y="0" width="100" height="70" stroke="red" stroke-width="3px" fill="white"/>
              <text x="50%" y="50%" alignment-baseline="middle" text-anchor="middle" font-family="Verdana">Treci box</text>    
            </svg>
        
            <ellipse
               style="fill:#ffffff;stroke:#000;stroke-width:2px;fill-opacity:0.5"
               cx="200"
               cy="50"
               rx="30"
               ry="20" />
        
            <ellipse
               style="fill:#eee;stroke:#0f0;stroke-width:1px;fill-opacity:0.9"
               cx="300"
               cy="50"
               rx="40"
               ry="30" />
        <line x1="135.0" y1="120.0" x2="165.0" y2="150.0" style="stroke:#000000;stroke-width:2px;" marker-end="url(#arrow)"/><line x1="250.0" y1="185.0" x2="300.0" y2="185.0" style="stroke:#000000;stroke-width:2px;" marker-end="url(#arrow)"/><line x1="311.111111111" y1="150.0" x2="217.795138889" y2="66.015625" style="stroke:#000000;stroke-width:2px;" marker-end="url(#arrow)"/><line x1="310.7421875" y1="79.00390625" x2="337.037037037" y2="150.0" style="stroke:#000000;stroke-width:2px;" marker-end="url(#arrow)"/>
    </svg>
</svg>
